<svg xmlns="http://www.w3.org/2000/svg" viewBox="0 0 1920 229.96635">
  <defs>
    <style>
      .a {
        fill: #53c9f4;
      }
    </style>
  </defs>
  <path class="a" d="M1200,127.27665l-80,.365v-.365a.6457.6457,0,0,0-1.04028-.04712,5.03356,5.03356,0,0,1-.40552.41871l-2.59363.01171a4.50658,4.50658,0,0,1-.311-3.18579.40753.40753,0,0,0-.11316-.39184,3.61862,3.61862,0,0,1-.78247-2.28833,31.48066,31.48066,0,0,0-.5293-4.02442,30.72317,30.72317,0,0,1-.384-3.92065c-.09327-.95606.28271-1.87964.17-2.84277a2.5997,2.5997,0,0,0-.60339-1.66675,2.28789,2.28789,0,0,1-.74414-1.85913,6.67935,6.67935,0,0,0-.15723-1.50562c-.06738-.21191-.07324-.48047-.36218-.49951-.3064-.02-.42664.217-.51087.46875a5.43594,5.43594,0,0,0-.35547,1.97876,4.2931,4.2931,0,0,1-.3435,2.10962c-.3064-.14453-.29248-.39233-.29492-.603a39.1326,39.1326,0,0,1,.06506-4.30224,16.12735,16.12735,0,0,0,.21692-3.19092,4.427,4.427,0,0,1,.14819-2.22193,3.35557,3.35557,0,0,1-.27368-1.31274,14.052,14.052,0,0,0-.41748-3.58618,1.78019,1.78019,0,0,1,.1665-1.30835,10.62391,10.62391,0,0,0,.46106-1.44141.6094.6094,0,0,0-.08288-.68457c-.77515-.60376-.62915-1.50293-.79151-2.2998-.16113-.79077-.024-1.63623-.26-2.39038a1.91536,1.91536,0,0,1-.03662-1.27564,4.46261,4.46261,0,0,1-.94836-2.63647.93318.93318,0,0,0-.1449-.39405c-.15625-.26562-.2998-.56469-.668-.56176-.32641.00244-.47314.25537-.61743.50464-.171.29565-.21716.738-.73633.668-.23486-.36474.04712-.58618.21485-.87744a5.75045,5.75045,0,0,0,1.07324-2.198c-.016-.08252-.03272-.166-.052-.24755-.07642-.31934.0144-.71436-.2-.959-.52015-.59277-.308-1.17016-.07911-1.76977a1.36237,1.36237,0,0,0-.07641-.2771c.02734-.47193-.4585-.8042-.30689-1.33423a3.16047,3.16047,0,0,0-1.23657-3.52954,1.466,1.466,0,0,0-.22241-.167c-.74683-.22021-1.14307.12647-1.281,1.125-.102.25147.34693.68116-.25219.78052a1.54419,1.54419,0,0,1-.2522-1.9331,3.16236,3.16236,0,0,0,.023-3.32813,12.35389,12.35389,0,0,1-1.02771-2.54956,1.45082,1.45082,0,0,0-.85608-1.19922c-.07288-.0415-.14429-.0852-.21485-.12964-.28979-.15771-.29345-.4602-.36584-.72778-.05457-.16211-.115-.33374-.29041-.39111a1.42633,1.42633,0,0,1-1.01159-1.65235,10.06735,10.06735,0,0,0-.21448-1.96362.58474.58474,0,0,0-.52344-.57129.54281.54281,0,0,0-.65063.2937c-.04151-1.10766.2063-2.24463.05737-3.41211-.08349-.65478-.24927-.94751-.92432-.77246a.86245.86245,0,0,1-.21557-.01977,4.76066,4.76066,0,0,1-.48792-.21338,1.2809,1.2809,0,0,1-.34131-.259c-.14123-.16455-.09533-.3623-.11657-.5559a4.38345,4.38345,0,0,0-.36035-2.00952,18.19,18.19,0,0,1-1.33924-2.37891c-.24646-.52661-.42761-1.175-1.152-1.31006a1.62825,1.62825,0,0,1-.54444-1.15186c.02478-1.68994-1.3435-2.407-2.29834-3.41528-.06018-.05249-.11633-.1084-.17639-.16186-.10266-.1919-.36914-.33985-.32-.56153.227-1.02124-.57641-1.584-.989-2.31933-.07458-.03321-.15-.06494-.22668-.09326a3.81533,3.81533,0,0,1-.59742-.13721.61358.61358,0,0,1-.39672-.58472,2.88956,2.88956,0,0,0-.5597-1.39282,12.5509,12.5509,0,0,0-3.4093-3.22266,1.96519,1.96519,0,0,0-2.68127.45459,3.10406,3.10406,0,0,0-.853,1.81958,14.89523,14.89523,0,0,1-.34888,1.79859,2.02881,2.02881,0,0,1-1.30884,1.63745,1.99074,1.99074,0,0,0-1.127,1.96679c.13281.56959.10278,1.11915-.54053,1.31959-.61963.19287-1.18725.501-1.79541.70556-1.65356.55664-1.18383.47144-1.40771,2.10059.04248.07177.08447.14258.12952.21289a6.98158,6.98158,0,0,0,.46984.77368.45063.45063,0,0,1,.02478.28686,8.674,8.674,0,0,1-2.39758,1.93311c-.90173.48169-1.18188.85254-1.04492,1.87207.12268.34058.3335.63818.477.96924a2.997,2.997,0,0,0,.23633.51782.444.444,0,0,1,.13574.1853c.12476.19873.08875.45313.227.64112.11646.29.56738.3916.47669.811-.994.49488-1.19971.40723-1.41639-.61279-.03552-.16748-.13159-.3103-.16748-.47388-.02832-.08008-.05517-.16284-.08032-.24365a1.07252,1.07252,0,0,0-.21216-.35669c-.59-.68042-.63476-.62622-1.24731.05786-.38062.425-.11194.85742-.24939,1.25269a25.31873,25.31873,0,0,1-1.08106,3.76562,2.35434,2.35434,0,0,0-.22009,1.39527,1.6608,1.6608,0,0,1-.08728.89917,1.12592,1.12592,0,0,0-.04431,1.11963c.109.16333.28076.26416.37585.42968a1.16652,1.16652,0,0,1,.17334.71314c-.209-.52344-.68225-.47925-1.10046-.57715-.58166-.13648-.99609.095-1.05872.64892-.17541,1.54883-.528,3.07007-.7362,4.61084a9.9949,9.9949,0,0,0-.31336,3.35132,14.34136,14.34136,0,0,0,1.15882,1.9563c.20483.239.41015.53272.103.81421-.27978.25635-.58032.08228-.84948-.08716a3.806,3.806,0,0,1-.32532-.26831.95777.95777,0,0,0-1.63416.36987,3.85555,3.85555,0,0,0-.276,1.22779c-.12317.93677-.39575,1.15552-1.33276,1.08887a10.83986,10.83986,0,0,0-3.09521.29345A1.46471,1.46471,0,0,0,1058.187,78.23a1.85006,1.85006,0,0,1-.38818,1.09912,1.99981,1.99981,0,0,0-.42346,1.648,11.07681,11.07681,0,0,1,.0404,1.26416,1.49838,1.49838,0,0,1-1.28528.99219.60866.60866,0,0,0-.55749.81592,2.22613,2.22613,0,0,0,.47693.77466c.441.52173.37426.7351-.298.88452a6.84227,6.84227,0,0,0-1.27978.36767c-.96057.41993-1.06983.897-.37366,1.71412.26831.31469.60657.5913.60645,1.062.079.364-.12769.50708-.44373.56665-.27722.05249-.56177.043-.8374.0896-1.19531.20141-1.76392,1.10718-1.329,2.06518.319.47266-.07556,1.00293.10412,1.48487.0337.07934.06922.15771.10816.23486.26965.41284.56531.94238.17627,1.29785-.31214.28516-.73279-.09766-1.07947-.36523a.7546.7546,0,0,0-1.1626.21338,2.90115,2.90115,0,0,0-.37195.92651,10.3692,10.3692,0,0,1-.89379,2.38281,2.72924,2.72924,0,0,0-.12574,2.71387c.05835.11938.17932.21753.13477.37891-.13318-.01807-.17285-.13086-.229-.22046-.46558-.74439-.71363-.75-1.29273-.10083a2.33351,2.33351,0,0,0-.64368,1.50268,11.8457,11.8457,0,0,1-.36975,2.15772,5.26107,5.26107,0,0,0,.05371,3.40161c-.15747-.2417-.30444-.47974-.6643-.42188-.3899.0625-.48072.36841-.48633.68946a10.11465,10.11465,0,0,1-.55811,2.80493,6.42253,6.42253,0,0,0-.3059,3.56079.82338.82338,0,0,1-.05347.65747c-.28247-.38281-.35828-.82031-.79175-1.02759-.88147-.42187-3.15552-.252-3.77978.47144a2.74341,2.74341,0,0,1-2.338.88037c-5.151-.01221-10.303-.06836-15.45245.01855-2.86444.04834-5.72846.15186-8.5943.1416a2.00191,2.00191,0,0,1-1.51294-.38378,2.70919,2.70919,0,0,0-2.89014-1.08106c.63-.9021.60871-.89673.31415-2.0708a1.88422,1.88422,0,0,1-.01788-1.45435.95033.95033,0,0,0-.10632-1.03369,3.77315,3.77315,0,0,1-.38086-1.74438c-.00507-.17578.06652-.3418.06988-.51612a2.65557,2.65557,0,0,0-.221-1.48828c-.139-.1831-.22943-.39453-.35248-.58789a.41439.41439,0,0,0-.24633-.08008.30575.30575,0,0,0-.15668.061c-.85162.90967-.929,2.15015-1.33106,3.24561-.1062.2893-.02111.69189-.1994,1.03515a1.17918,1.17918,0,0,0-2.03753.293c-.31208.59619-.69153,1.01953-1.4314.87866a20.37293,20.37293,0,0,0-3.44812-.14184A2.409,2.409,0,0,1,998.14929,110c-.31042-.21655-.01617-.46093-.01233-.68677a3.28594,3.28594,0,0,1,.18811-.5686.34109.34109,0,0,0,.08972-.21045,1.396,1.396,0,0,0-.00335-.63232c-.01447-.0896-.02808-.18042-.0423-.27a19.55032,19.55032,0,0,1,.00769-4.7439c.01544-.09546.0318-.19067.04761-.28589a1.60383,1.60383,0,0,0-.01978-.70727c-.03112-.08911-.06054-.17871-.09289-.26709a.49527.49527,0,0,1-.02533-.27515c-.12323-.937.15246-1.87842-.02973-2.81543a16.44977,16.44977,0,0,1-.12249-2.44116,2.95486,2.95486,0,0,0-.526-1.99,3.84216,3.84216,0,0,1-.9983-3.09009,5.774,5.774,0,0,0-.137-1.88867c-.19568-.77222-.527-.96655-1.59582-.97144a.89058.89058,0,0,0-1.007.96241c-.02216.08764-.04462.17382-.06623.2622a.97053.97053,0,0,1-.95343.9773,9.54553,9.54553,0,0,0-1.41571.384c-.66058.12988-1.34723.50659-2.00171.04151a2.33208,2.33208,0,0,0-1.23761-.43287c-.42633-.13378-.32312-.4458-.26348-.75708.4826-2.51977,1.53582-4.91748,1.54589-7.54248a28.61371,28.61371,0,0,0-.01483-3.282,10.86019,10.86019,0,0,1,.00318-2.85473,11.446,11.446,0,0,0,.03143-2.27295,1.432,1.432,0,0,0-.98016-1.26c-.53522-.23316-.8971.10058-1.25666.44287a4.31772,4.31772,0,0,0-1.11523,2.04614c-.12225.43286-.20245.8772-.34778,1.30347-.0722.21167-.1496.47143-.42932.4436-.32526-.03271-.34808-.33105-.3678-.58057a1.42417,1.42417,0,0,1,.65247-1.37744,3.1201,3.1201,0,0,0,1.1961-1.48559,2.39384,2.39384,0,0,1,.51129-.76929,2.73646,2.73646,0,0,0,.651-1.60376,17.38406,17.38406,0,0,1,.42608-3.33325,2.11794,2.11794,0,0,1,.23859-.4751c.11267-.24585-.0777-.43237-.131-.64624-.02161-.0835-.0398-.16724-.058-.25171a3.74132,3.74132,0,0,1-.07074-1.24609,3.50712,3.50712,0,0,0,.0716-.6416,1.3912,1.3912,0,0,0-.21253-.7107,1.91669,1.91669,0,0,1-.15539-1.49145,3.46986,3.46986,0,0,1-.90229-1.97925.445.445,0,0,0-.769-.26636c-.41455.54492-1.06317.59278-1.54974.94629-.31452.22852-.6142.29712-.90222-.00317a.72938.72938,0,0,1-.05964-1.06617c.59809-.6394.93165-1.47241,1.57374-2.07177a1.2272,1.2272,0,0,0-.009-.88843c-.06781-.33008.32349-.39941.37256-.65625a3.39211,3.39211,0,0,1,.17627-1.177,2.51837,2.51837,0,0,0,.02319-1.157.6246.6246,0,0,1,.04822-.63355.491.491,0,0,0,.05866-.51123c-.01423-.28955.13739-.562-.04438-.87329a3.80987,3.80987,0,0,1-.41211-1.82642.93721.93721,0,0,0-.04406-.25537,7.264,7.264,0,0,0-.17823-.86377,2.89854,2.89854,0,0,1-.72772-2.0166,1.29586,1.29586,0,0,0-.16662-.6477.621.621,0,0,0-.65375-.42456c-.34815.04174-.44257.29-.5.585-.04736.2434.05792.51709-.14923.77392a10.23886,10.23886,0,0,1,.06793-2.14355c.06116-.67261-.25708-.8208-.877-.56641a1.84271,1.84271,0,0,0-.78925.644,8.52947,8.52947,0,0,0,.134-6.582,16.00085,16.00085,0,0,1-1.47369-3.71728.60716.60716,0,0,0-.75379-.50977c-.42773.04737-.53686.35034-.56457.71582a8.62929,8.62929,0,0,1-.04285.927c-.074.40015-.303.6167-.718.47852-.39-.12988-.62531-.38916-.46625-.83911a1.80393,1.80393,0,0,1,.36352-.56641,3.2034,3.2034,0,0,0,.68128-1.696c.23511-1.52173.41437-3.02954-.65656-4.35376a.43934.43934,0,0,1-.08984-.23487,1.61323,1.61323,0,0,0-1.12134-1.48291,4.11964,4.11964,0,0,0-.07269-.92431c-.03937-.1543-.0838-.30762-.12177-.4624a3.60642,3.60642,0,0,1-.08551-.89527c-.04834-.38428-.21521-.89331-.71985-.896a.29615.29615,0,0,0-.28643.13745.54638.54638,0,0,0-.12647-.5835c-.24939-.21338-.50763-.10522-.78631-.00928a1.39739,1.39739,0,0,0-.60035.41284,1.89922,1.89922,0,0,0-.19037-2.16552,2.45155,2.45155,0,0,1-.24169-.71485c-.35193-1.10522-.81665-2.09375-2.20234-2.17212-.37445-.02124-.64111-.32861-.9544-.51269-.54785-.32178-.56415-.65088-.19153-1.156a1.31631,1.31631,0,0,0-.19019-2.05517,1.23259,1.23259,0,0,1-.38635-.5271.92991.92991,0,0,0-.64557-.5647,1.23191,1.23191,0,0,1-.266-.12671c-.10278-.08349-.11163-.20923-.15924-.32153-.16919-.26782.1535-.36255.1861-.56323.01159-.07691.03326-.15039.051-.22461.16242-.199.36664-.38013.30695-.6814-.006-.09082-.01557-.18213-.02973-.272-.08331-.54566.002-1.16626-.6455-1.46607a1.89132,1.89132,0,0,0-.70313-.31909c-.26581-.11645-.5802-.06714-.824-.2522a2.4552,2.4552,0,0,1-.27521-.15332c-.05255-.03955-.1023-.08276-.15259-.12426a.272.272,0,0,1-.07709-.17652c.0434-.60669.64319-1.07519.44556-1.74511A1.83065,1.83065,0,0,1,966.01,6.35722c-.059-.23706-.12232-.47388-.17352-.71362a25.111,25.111,0,0,0-.94544-3.29444,2.428,2.428,0,0,0-.27551-.76,10.168,10.168,0,0,1-.53858-.92846c-.40857-.72339-1.13806-.45215-1.74755-.55445-.42359-.03247-.84766-.0188-1.27143-.0227h-.42138A15.02479,15.02479,0,0,1,958.94659,0c-.24682-.00317-.4483.17237-.6936.17578A4.114,4.114,0,0,0,956.8349,1.846a8.00858,8.00858,0,0,1-.78021,2.82471c-.00739.085-.01282.16894-.01483.25439a4.045,4.045,0,0,1-.734,2.12671,1.79442,1.79442,0,0,0-.39344,1.1792,1.26182,1.26182,0,0,1-.98248,1.446,6.75146,6.75146,0,0,0-.66363.36866c-1.55085.81347-2.028,2.07348-1.144,3.3374.3302.47217.23212.78564-.28418,1.08325-1.297.74732-1.55377,1.4917-.9917,2.83545a.81614.81614,0,0,1-.46917,1.22412,2.175,2.175,0,0,1-.63062.23657,2.6055,2.6055,0,0,0-2.03937,1.43531c-.2528.43115-.15588.874-.30554,1.28564a2.202,2.202,0,0,0,.61872,2.53272,1.38607,1.38607,0,0,1,.21508.25976.36667.36667,0,0,1,.05841.39356.27027.27027,0,0,1-.374.084c-.33032-.13989-.55768.10742-.83.17041-.76257.17676-1.18554.75806-1.75042,1.1792a1.85332,1.85332,0,0,0-.80182,1.31445,5.5407,5.5407,0,0,1-.93482,2.76367.84981.84981,0,0,0-.21.63013c.23694,1.31348-.023,2.71436.68653,3.94434.05615.09741.14007.19311.06042.30493-.60217.84717-1.01556,1.92383-2.34332,1.87866a.9281.9281,0,0,0-.93.60474,7.23254,7.23254,0,0,0-.67884,4.023,11.78082,11.78082,0,0,1,.01911,3.11572c-.28272-.364-.57105-.70313-1.098-.5791-.5556.13086-.408.65722-.57769,1.01-.20624.42871.22534.937-.19617,1.32129-.053.08178.021.23633-.00562.23681-.78051.01929-1.02758.4939-1.02539,1.18238a1.17135,1.17135,0,0,1-.175.58007c-.10846.302-.4195.4939-.45844.83448a5.48372,5.48372,0,0,1,.02295,2.08374c-.13562.37768.28058.66528.169,1.03833-.02247.11548-.079.22119-.09858.33789a1.47213,1.47213,0,0,0,.01941.58813c.035.116.06671.23267.09668.34986.01874.07959.03656.15966.05451.23925a5.98245,5.98245,0,0,1,.14886,1.37085,5.43723,5.43723,0,0,1-.0838.75757,9.72569,9.72569,0,0,0,1.52118,3.12378,1.47831,1.47831,0,0,1,.33417.67285c.06775.43384-.08338.80738-.561.69141-.63684-.15454-.92413.22436-1.2547.60522-.461.17579-.92236-.05517-1.3966.0083-.595.07959-1.02485.26075-1.08405.92359-.1048,1.448-.34888,2.88232-.46338,4.33179a5.477,5.477,0,0,0,.00507,1.8291c.40741,1.47217.71289,2.97363,1.21557,4.41968a1.21757,1.21757,0,0,0,.53815.82519c.64093.279.791.84033,1.06757,1.3728.4364.84058-.14319,1.26978-.59223,1.782-.41522.47363-.88714.84472-1.52765.50415-.58813-.313-.93982.05127-.92712.45654a13.38331,13.38331,0,0,1-.32837,1.87475,23.49385,23.49385,0,0,0,.40326,5.17481c.18671,1.54517.65186,3.0581.98468,4.58667a2.80238,2.80238,0,0,1-.27606,2.269c-.11975.30054-.16748.57959-.66907.50635a31.06686,31.06686,0,0,0-5.57349-.68555.84133.84133,0,0,0-.92248.634,4.51377,4.51377,0,0,1-.82721,1.84106,2.97111,2.97111,0,0,0-.746,2.57861,41.55471,41.55471,0,0,1-.33057,5.99122c-.09131,1.7478.03394,3.46044.09155,5.187a12.03458,12.03458,0,0,1,.03016,2.02221c-.12055.89063-.63855,1.28516-1.58594,1.35547a34.42114,34.42114,0,0,1-4.36023-.07275,1.6992,1.6992,0,0,1-1.72406-1.42114c-.02588-.07666-.10217-.12378-.1015-.20752a.49618.49618,0,0,0-.52362-.532.64308.64308,0,0,0-.67206.48462,7.44487,7.44487,0,0,1-.286.89942.49812.49812,0,0,1-.34149.2893c-.24878.04761-.21222-.177-.27277-.32544a9.67041,9.67041,0,0,0-.66888-1.25463.77372.77372,0,0,0-.81659-.45362c-.39392.05762-.449.32862-.57581.64722a3.02859,3.02859,0,0,0-.19818,1.146c-.00433.95751.011,1.91552-.00977,2.873a1.97339,1.97339,0,0,1-.41009,1.344,2.61328,2.61328,0,0,1-1.87616.68676c-1.25726.06372-2.49219-.22021-3.74915-.17675-1.03595.03588-2.03772.32519-3.06555.35986-4.314.145-8.62353-.16846-12.94086-.12769-3.31811.0315-6.64471.00269-9.967-.05249a15.15286,15.15286,0,0,1-1.6043-.03564c-.7677-.09448-1.09931-.4043-1.05848-1.14771a15.25326,15.25326,0,0,0-.69159-4.39965.82012.82012,0,0,0-1.25225-.66163c-.2309.0879-.46112.31665-.69452.09888-.27735-.25879-.13037-.58227-.00013-.86059a6.54132,6.54132,0,0,0,.70392-1.80127,16.31581,16.31581,0,0,0-.03143-1.81495,5.00871,5.00871,0,0,0-1.63592-3.72363,2.33192,2.33192,0,0,0-1.24726-.94726.65817.65817,0,0,0-.28.16919,1.64608,1.64608,0,0,0,.40906-1.05884c-.10785-.5813.38068-1.19849-.10412-1.75781a5.48362,5.48362,0,0,1-.56525-2.34571c-.024-.08325-.05206-.16845-.0802-.25293a2.561,2.561,0,0,1-.10822-.562c-.01977-.38306-.12616-.70972-.55224-.7998a.759.759,0,0,0-.85718.4768c-.194.23706-.42236.38648-.69611.1438-.24591-.21777-.18005-.48681-.0592-.7539.11365-.251.41888-.3628.46381-.6587.18176-.7417-.30915-1.42578-.17505-2.17065.092-.511-.2165-.80054-.64508-1.04468-.31159-.17749-.80323-.17871-.86487-.6897-.00867-.10327-.05634-.20312-.05921-.30786a1.99243,1.99243,0,0,0-1.41278-2.40014.96832.96832,0,0,1-.64923-1.16626,1.68082,1.68082,0,0,1-.00165-.23242,2.02448,2.02448,0,0,1,.22071-.57935c.09973-.14209.25775-.24585.28961-.43384-.128-.70508-.73328-.77881-1.25751-.8811-.47876-.09326-.75476-.25415-.65582-.78345-.001-.26855.21655-.51611.06933-.79761-.15686-.70971-.912-1.0979-.92633-1.92138A8.20615,8.20615,0,0,0,864.5484,75.646a1.59152,1.59152,0,0,0-.66577-.74658,5.41684,5.41684,0,0,0-5.03082-.09473c-.81818.3689-1.02.36157-1.04749-.56836-.03082-1.04175-.11456-2.0769-.20648-3.11182.05987-.56884-.26788-.85376-.75519-1.02319a3.877,3.877,0,0,0-2.67328,2.58179,1.266,1.266,0,0,1,.69623-1.59278c.432-.25708.87445-.50488.95624-1.07324a5.89732,5.89732,0,0,1,.02911-2.83862c-.02423-.14038-.03729-.28174-.06457-.42114-.17981-.25708-.44831-.47364-.37909-.84229a8.17467,8.17467,0,0,0-.31787-2.29394,2.08447,2.08447,0,0,1-.1792-.63526,2.19586,2.19586,0,0,0-.25476-1.01562c-.03754-.0857-.07447-.17334-.11182-.2583a.67479.67479,0,0,0-.82422-.52564c-.42273.07544-.66876.45362-1.04651.605-.24475.137-.53167.17163-.76916.32617-.20166.13184-.34271.33277-.54981.47779-.00769.01172-.0191-.0127-.02929.00171a1.62389,1.62389,0,0,1,.61334-.7605,2.77853,2.77853,0,0,0,1.0224-1.77686,8.64624,8.64624,0,0,1-.26142-2.25293c.02674-.93554-.62048-1.59179-1.00378-2.33984-.269-.5249-.99261-.58643-1.53741-.81055a2.42938,2.42938,0,0,1-.4679-.20752.91048.91048,0,0,1-.517-.80859c.01142-.5874.46887-1.00244.60242-1.54321.0227-.574.16321-1.17334-.34692-1.637-.20142-.15673-.4408-.30566-.46466-.5747a3.16538,3.16538,0,0,0-.84827-1.60913,1.21,1.21,0,0,0-.72724-.37476c-.81646-.44653-.84729-.65479-.165-1.08984.19738-.27417.00585-.63794.21148-.90821a1.64392,1.64392,0,0,0,.01862-.26123,2.4058,2.4058,0,0,0-.01233-.2539,3.24178,3.24178,0,0,0-.71265-1.15747,1.28817,1.28817,0,0,0-.77105-.55787c-.073-.02685-.14594-.05078-.221-.07177-.23194-.08106-.48468-.07032-.7135-.168-.058-.02564-.11316-.054-.17151-.08081-.04883-.033-.09363-.06909-.14179-.10279-.03827-.04126-.07165-.08642-.10827-.12866-.02485-.05151-.04407-.10742-.06708-.15967a1.278,1.278,0,0,1,.37262-1.0288c.13171-1.13526.01092-2.07471-1.37769-2.39429a.83759.83759,0,0,1-.5592-1.25855c-.384-1.13794-.64227-2.3125-.98242-3.46411a3.57712,3.57712,0,0,0-3.03986-2.87207,9.69542,9.69542,0,0,0-4.02246-.10473,4.59361,4.59361,0,0,0-2.72986,2.39575c-.2138.43872-.09143.91748-.3327,1.32055a.52046.52046,0,0,0-.11066.30738,3.82117,3.82117,0,0,1-2.20373,3.68115,5.785,5.785,0,0,0-.61518.44336.92445.92445,0,0,0-.39874,1.27978,3.7756,3.7756,0,0,1,.4328,1.35669c-.00586.42188-.35443.34937-.6048.42163-.39166.11329-.84277.08985-1.113.48145-.17743.11011-.29431.28906-.45917.41333a1.33606,1.33606,0,0,0-.4939.92017,2.32626,2.32626,0,0,0,.65216,2.27783c.2522.59424-.2016.7268-.59124.89209a2.4738,2.4738,0,0,0-1.78693,2.032,1.786,1.786,0,0,1-.32495.67969c-.24585,1.2146-.13617,1.55078.6615,2.0249a.70988.70988,0,0,0-1.18769.4021c-.30023,1.0686-1.07782,1.24365-2.02563,1.18188a1.08244,1.08244,0,0,0-1.17865.85547,16.18076,16.18076,0,0,1-.56372,2.1211c.00012.12182-.0044.24243-.01318.36377-.06861.41186-.018.83032-.07288,1.24243-.01709.1123-.04132.22339-.06006.33545a.74161.74161,0,0,0,.38141.917c.3197.16748.27411.37768-.0163.56055a1.56409,1.56409,0,0,0-.42291.39965c-.15753.23438-.0528.47388-.033.71045a1.18447,1.18447,0,0,1-.0628.51368c.0014.01294-.03626-.00147-.0373.01367a5.816,5.816,0,0,0-.2561-.86475c-.1264-.25732-.259-.52124-.627-.34961-.50007.32129-.59027.91138-.8902,1.36524.26092.90088-.24536,1.54809-.67243,2.26123a4.09043,4.09043,0,0,0,.05036,4.97924c.17743.23121.29663.50147-.15082.50123-.59821-.00025-.75415.41162-.86591.84716-.11987.467-.31048.76612-.85974.70044-.47522-.05713-.6615.249-.67688.66431a34.844,34.844,0,0,1-.95123,4.33936c-.21167,1.2915-.40112,2.63549.51086,3.77319a3.32357,3.32357,0,0,1,.53693,2.877c-.26526-.64087-.3139-1.37646-.919-1.90576-.3255-.28491-.54217-.61865-1.0393-.48657-.49457.1311-.47186.56274-.567.92944-.02014.075-.0404.1499-.059.22559-.05786.18652-.08551.38012-.13208.56884-.0155.07764-.0307.15552-.04718.23316a2.39669,2.39669,0,0,0,.03735.60522,1.47113,1.47113,0,0,1-.10888.22339c-.18378.49561-.21619,1.0315-.40113,1.52661-.04766.46631-.10546.94556-.18261,1.39209-.13959.8086.54779,1.61817-.0564,2.38819-.08581.75268.12549,1.49511.109,2.2334a3.02033,3.02033,0,0,0,1.19092,2.53515,1.78182,1.78182,0,0,1,.76874,1.97217c-.14374.3916-.19342.80664-.36817,1.1853-.0379.07495-.07892.14722-.11883.22144a3.91264,3.91264,0,0,0-.39142.584,1.086,1.086,0,0,1-.551.55908,3.62338,3.62338,0,0,0-1.35772,1.09742,1.89845,1.89845,0,0,0-.12983.30786c-.21069.54638.25678,1.09082.11469,1.55469-.44128,1.4414.38672,2.825.08606,4.24365a1.06234,1.06234,0,0,0,.22363.70141,3.39075,3.39075,0,0,1,.17218,2.208c-.043.31812-.2951.18872-.50714.17847a1.72526,1.72526,0,0,0-1.722.88574,4.08153,4.08153,0,0,0-.41779,1.92529,4.4313,4.4313,0,0,1-.25177,2.07569c-.09271.32031-.2832.64941-.15845.97656a2.293,2.293,0,0,1-.47308,2.104,3.49874,3.49874,0,0,0-.464.77979,58.84985,58.84985,0,0,0-1.99371,6.31152,4.658,4.658,0,0,0-.26825,1.448c-.01465.08569-.02985.17065-.04395.25659-.13141.68506.03882,1.39209-.15332,2.07153-.05395.19874-.10828.39722-.16455.596a7.92485,7.92485,0,0,0-.08112.89112l-77.827.355H0V229.96635H1920V127.27665ZM873.469,100.76054c.0224-.0896.035-.19263.05616-.29272a1.09078,1.09078,0,0,1,.0733-.24463C873.54675,100.396,873.52209,100.585,873.469,100.76054Zm173.273,7.27808a2.25162,2.25162,0,0,1,.60779,1.0542A1.93563,1.93563,0,0,1,1046.74194,108.03862Z"/>
</svg>
