<svg xmlns="http://www.w3.org/2000/svg" xmlns:xlink="http://www.w3.org/1999/xlink" viewBox="0 0 70.86623 70.86608">
  <defs>
    <style>
      .a {
        fill: url(#a);
      }

      .b {
        fill: url(#b);
      }

      .c {
        fill: url(#c);
      }

      .d {
        fill: url(#d);
      }
    </style>
    <linearGradient id="a" data-name="Degradado sin nombre 3" x1="43.68858" y1="33.38456" x2="48.14787" y2="37.84384" gradientUnits="userSpaceOnUse">
      <stop offset="0" stop-color="#3b3b3c"/>
      <stop offset="1" stop-color="#3b3b3c"/>
    </linearGradient>
    <linearGradient id="b" x1="22.46904" y1="27.33167" x2="28.51613" y2="33.37876" xlink:href="#a"/>
    <linearGradient id="c" x1="22.24478" y1="36.6165" x2="28.9218" y2="43.29352" xlink:href="#a"/>
    <linearGradient id="d" x1="10.37814" y1="10.37806" x2="60.48808" y2="60.48801" xlink:href="#a"/>
  </defs>
  <g>
    <path class="a" d="M45.85293,32.80473a3.58839,3.58839,0,0,0-3.677,3.54605h7.465A3.52545,3.52545,0,0,0,45.85293,32.80473Z"/>
    <path class="b" d="M27.05264,32.95017A6.24314,6.24314,0,0,0,28.3768,32.795a2.13942,2.13942,0,0,0,1.81891-1.41278,4.4551,4.4551,0,0,0,.14338-1.46863,1.84122,1.84122,0,0,0-1.4386-1.81379,8.66439,8.66439,0,0,0-1.7772-.27c-1.14062-.04678-2.28406-.02636-3.42633-.0317-.55835-.0026-1.1167-.00043-1.69385-.00043v5.139c.08029.00785.15039.02066.22052.02069C23.83334,32.95814,25.44314,32.96833,27.05264,32.95017Z"/>
    <path class="c" d="M29.94324,37.59456a3.0657,3.0657,0,0,0-1.77975-.665c-1.0456-.05707-2.09428-.06409-3.14182-.07621-.99582-.01153-1.99189-.0025-3.01121-.0025V43.123c2.02988-.03263,4.03452-.01554,6.03352-.11347a2.68379,2.68379,0,0,0,2.68387-2.17691,5.17308,5.17308,0,0,0,.11929-1.14142A2.52832,2.52832,0,0,0,29.94324,37.59456Z"/>
    <path class="d" d="M35.43312,0A35.433,35.433,0,1,0,70.86623,35.43306,35.43306,35.43306,0,0,0,35.43312,0ZM41.174,24.71661H50.5643V27.01H41.174ZM35.09736,43.19747a6.37894,6.37894,0,0,1-4.95649,3.6901,21.41883,21.41883,0,0,1-3.002.25219c-3.34492.03064-6.69029.01163-10.03548.01163h-.48623V23.73044c.10336-.00583.19412-.01542.28488-.01545,3.65686-.00143,7.31379-.01507,10.97056.00373a8.9261,8.9261,0,0,1,4.24351.92337,5.32051,5.32051,0,0,1,2.88772,4.439,7.11184,7.11184,0,0,1-.1221,2.22681,4.38028,4.38028,0,0,1-2.08987,2.92517c-.1846.11283-.37122.22238-.58689.35138A5.74315,5.74315,0,0,1,34.26338,35.884a5.38843,5.38843,0,0,1,1.46072,3.16117A7.06071,7.06071,0,0,1,35.09736,43.19747Zm18.847-3.91389q-3.89549-.00255-7.791-.00216c-1.35931-.00019-2.71866,0-4.10071,0a3.77867,3.77867,0,0,0,3.52851,4.12607A4.75755,4.75755,0,0,0,47.67,43.20778a3.266,3.266,0,0,0,1.72736-1.45331A.46985.46985,0,0,1,49.717,41.538c1.37109-.01468,2.74237-.00988,4.11359-.00885a1.38765,1.38765,0,0,1,.16766.02185,4.56714,4.56714,0,0,1-.844,2.054,7.669,7.669,0,0,1-5.60374,3.30921,9.54292,9.54292,0,0,1-7.119-1.75449,6.50194,6.50194,0,0,1-2.51718-4.02124,12.15788,12.15788,0,0,1,.38162-7.0745,7.29357,7.29357,0,0,1,6.023-4.74543,9.49064,9.49064,0,0,1,5.34363.58035,7.3101,7.3101,0,0,1,4.276,5.28675,16.6436,16.6436,0,0,1,.31064,3.86948C54.253,39.2993,54.10739,39.28371,53.94437,39.28358Z"/>
  </g>
</svg>
