<svg xmlns="http://www.w3.org/2000/svg" xmlns:xlink="http://www.w3.org/1999/xlink" viewBox="0 0 70.86622 70.86614">
  <defs>
    <style>
      .a {
        fill: url(#a);
      }
    </style>
    <linearGradient id="a" data-name="Degradado sin nombre 3" x1="10.37812" y1="10.37808" x2="60.48808" y2="60.48804" gradientUnits="userSpaceOnUse">
      <stop offset="0" stop-color="#3b3b3c"/>
      <stop offset="1" stop-color="#3b3b3c"/>
    </linearGradient>
  </defs>
  <path class="a" d="M35.43311,0A35.43307,35.43307,0,1,0,70.86622,35.43307,35.433,35.433,0,0,0,35.43311,0ZM19.86881,19.75305H50.997a4.78775,4.78775,0,0,1,1.92455.40352,1.48931,1.48931,0,0,0-.3944.3114l-13.912,15.78559a4.24123,4.24123,0,0,1-6.36391,0L18.09373,20.18962c-.02245-.02531-.04891-.044-.07252-.06759A4.79546,4.79546,0,0,1,19.86881,19.75305Zm35.9364,26.55146A4.80837,4.80837,0,0,1,50.997,51.11305H19.86881a4.8085,4.8085,0,0,1-4.80858-4.80854V24.56138a4.78128,4.78128,0,0,1,.69313-2.47761c.02535.03421.0454.07082.07406.10316L29.98549,38.251a7.26241,7.26241,0,0,0,10.89537,0L54.79354,22.46541a1.4973,1.4973,0,0,0,.272-.45834,4.77991,4.77991,0,0,1,.73969,2.55431Z"/>
</svg>
