<svg xmlns="http://www.w3.org/2000/svg" xmlns:xlink="http://www.w3.org/1999/xlink" viewBox="0 0 70.86622 69.39094">
  <defs>
    <style>
      .a {
        fill: url(#a);
      }
    </style>
    <linearGradient id="a" data-name="Degradado sin nombre 3" y1="34.69547" x2="70.86622" y2="34.69547" gradientUnits="userSpaceOnUse">
      <stop offset="0" stop-color="#3b3b3c"/>
      <stop offset="1" stop-color="#3b3b3c"/>
    </linearGradient>
  </defs>
  <path class="a" d="M35.42868,0A35.59537,35.59537,0,0,0,24.23625,69.32925c1.77166.32775,2.41831-.77067,2.41831-1.71408,0-.846-.031-3.08268-.04872-6.0502C16.751,63.7131,14.66931,56.79479,14.66931,56.79479c-1.60778-4.11023-3.93308-5.20423-3.93308-5.20423-3.22-2.20571.23918-2.16142.23918-2.16142,3.55659.25246,5.42569,3.66733,5.42569,3.66733,3.16241,5.43455,8.29578,3.86663,10.31547,2.95423a7.59365,7.59365,0,0,1,2.25-4.75689c-7.86615-.89912-16.13978-3.95079-16.13978-17.57924a13.78891,13.78891,0,0,1,3.64961-9.54922,12.8188,12.8188,0,0,1,.34547-9.41191s2.97638-.95669,9.74411,3.64518a33.44507,33.44507,0,0,1,17.74313.00443c6.76329-4.60187,9.73525-3.64518,9.73525-3.64518a12.83764,12.83764,0,0,1,.35433,9.41191A13.76243,13.76243,0,0,1,58.03944,33.719c0,13.66388-8.28249,16.67126-16.17522,17.55266,1.27116,1.09843,2.405,3.2687,2.405,6.58613,0,4.75689-.04429,8.59252-.04429,9.75738,0,.95226.6378,2.05955,2.436,1.70964A35.59886,35.59886,0,0,0,35.42868,0Z"/>
</svg>
