<svg xmlns="http://www.w3.org/2000/svg" viewBox="0 0 935.80694 813.69493">
  <defs>
    <style>
      .a {
        fill: none;
      }

      .b {
        fill: #4cf;
      }
    </style>
  </defs>
  <g>
    <polygon class="a" points="684.658 639.694 469.779 267.508 254.898 639.694 684.658 639.694"/>
    <path class="b" d="M413.91649,164.2368c.06882-.119.18517-.18313.261-.296a6.356,6.356,0,0,1,.84041-.95677,6.43585,6.43585,0,0,1,.99438-.87657c.10761-.07144.16914-.18488.284-.25078a24495.80243,24495.80243,0,0,0,2.03951-.68761,8.77153,8.77153,0,0,1,2.43434,0,6.31495,6.31495,0,0,1,1.30524.44032,5.91167,5.91167,0,0,1,.73252.24729c.11285.0659.175.17846.28431.2502a10.32568,10.32568,0,0,1,1.836,1.83479c.07465.112.191.17613.25982.29511L699.6879,639.69388h85.43064L419.5521,6.50869,0,733.20443l42.70511,73.98181Z"/>
    <path class="b" d="M802.15281,643.31857a10.34148,10.34148,0,0,1,.66895,2.49942c.00933.13443.07815.24786.07815.384a7.60134,7.60134,0,0,1-1.64962,4.221,6.38832,6.38832,0,0,1-.9973.88007,5.94826,5.94826,0,0,1-.60509.53452c-.15572.0904-.32543.12418-.48407.20033-.17642.084-.34759.15193-.53131.21988a6.47142,6.47142,0,0,1-2.23313.45549c-.00962,0-.01808-.0035-.02916-.0035H695.96436c-.00875,0-.0172.0035-.02683.0035-.00845,0-.0172-.0035-.028-.0035H247.38473L204.67,726.69457H935.80694L516.25251,0H430.82508L802.02771,642.94623C802.09653,643.06462,802.09274,643.19847,802.15281,643.31857Z"/>
    <path class="b" d="M193.39,739.7137a6.47462,6.47462,0,0,1-2.23547-.45611c-.18225-.0682-.35343-.13527-.52781-.21838-.16068-.07615-.33039-.11139-.48611-.20121a5.95182,5.95182,0,0,1-.60509-.53451,5.87041,5.87041,0,0,1-2.4877-4.31234,6.26167,6.26167,0,0,1-.15922-.78876c0-.13677.06882-.2502.07815-.38492a6.317,6.317,0,0,1,.256-1.26967,6.22572,6.22572,0,0,1,.41292-1.228c.06007-.121.05628-.25453.1251-.37326L462.2645,254.49063l-42.7124-73.98094L53.97867,813.69493H893.0925l42.71444-73.98473H193.4183C193.40722,739.7102,193.39877,739.7137,193.39,739.7137Z"/>
  </g>
</svg>
