<?xml version="1.0" encoding="utf-8"?>
<!-- Generator: Adobe Illustrator 24.1.2, SVG Export Plug-In . SVG Version: 6.00 Build 0)  -->
<svg version="1.1" id="Layer_1" xmlns="http://www.w3.org/2000/svg" xmlns:xlink="http://www.w3.org/1999/xlink" x="0px" y="0px"
	 viewBox="0 0 935.8 813.7" style="enable-background:new 0 0 935.8 813.7;" xml:space="preserve">
<style type="text/css">
	.st0{fill:none;}
	.st1{fill:#44CCFF;}
</style>
<g>
	<polygon class="st0" points="684.7,639.7 469.8,267.5 254.9,639.7 	"/>
	<path class="st1" d="M802.2,643.3c0.3,0.8,0.6,1.6,0.7,2.5c0,0.1,0.1,0.2,0.1,0.4c-0.1,1.5-0.7,3-1.6,4.2c-0.3,0.3-0.6,0.6-1,0.9
		c-0.2,0.2-0.4,0.4-0.6,0.5c-0.2,0.1-0.3,0.1-0.5,0.2c-0.2,0.1-0.3,0.2-0.5,0.2c-0.7,0.3-1.5,0.4-2.2,0.5c0,0,0,0,0,0H696
		c0,0,0,0,0,0c0,0,0,0,0,0H247.4l-42.7,74h731.1L516.3,0h-85.4L802,642.9C802.1,643.1,802.1,643.2,802.2,643.3z"/>
</g>
</svg>
