<?xml version="1.0" encoding="utf-8"?>
<!-- Generator: Adobe Illustrator 24.1.2, SVG Export Plug-In . SVG Version: 6.00 Build 0)  -->
<svg version="1.1" id="Layer_1" xmlns="http://www.w3.org/2000/svg" xmlns:xlink="http://www.w3.org/1999/xlink" x="0px" y="0px"
	 viewBox="0 0 935.8 813.7" style="enable-background:new 0 0 935.8 813.7;" xml:space="preserve">
<style type="text/css">
	.st0{fill:none;}
	.st1{fill:#44CCFF;}
</style>
<g>
	<polygon class="st0" points="684.7,639.7 469.8,267.5 254.9,639.7 	"/>
	<path class="st1" d="M193.4,739.7c-0.8,0-1.5-0.2-2.2-0.5c-0.2-0.1-0.4-0.1-0.5-0.2c-0.2-0.1-0.3-0.1-0.5-0.2
		c-0.2-0.2-0.4-0.3-0.6-0.5c-1.4-1-2.3-2.6-2.5-4.3c-0.1-0.3-0.1-0.5-0.2-0.8c0-0.1,0.1-0.3,0.1-0.4c0-0.4,0.1-0.9,0.3-1.3
		c0.1-0.4,0.2-0.8,0.4-1.2c0.1-0.1,0.1-0.3,0.1-0.4l274.5-475.5l-42.7-74L54,813.7h839.1l42.7-74L193.4,739.7
		C193.4,739.7,193.4,739.7,193.4,739.7z"/>
</g>
</svg>
