<svg xmlns="http://www.w3.org/2000/svg" xmlns:xlink="http://www.w3.org/1999/xlink" viewBox="0 0 70.86623 70.86614">
  <defs>
    <style>
      .a {
        fill: url(#a);
      }
    </style>
    <linearGradient id="a" data-name="Degradado sin nombre 3" x1="10.37812" y1="10.37807" x2="60.48809" y2="60.48804" gradientUnits="userSpaceOnUse">
      <stop offset="0" stop-color="#3b3b3c"/>
      <stop offset="1" stop-color="#3b3b3c"/>
    </linearGradient>
  </defs>
  <path class="a" d="M35.43312,0A35.43307,35.43307,0,1,0,70.86623,35.43306,35.433,35.433,0,0,0,35.43312,0ZM51.81988,21.30776,44.84026,49.22619a2.3497,2.3497,0,0,1-3.69992,1.30188l-7.69627-5.84046-5.60633,4.75388.00906-.20184-.06491.09015L23.88717,38.766l-.01434.00924-9.19654-3.10751a1.14874,1.14874,0,0,1-.04032-2.16215l35.66142-13.5504A1.14881,1.14881,0,0,1,51.81988,21.30776Z"/>
</svg>
