<svg xmlns="http://www.w3.org/2000/svg" viewBox="0 0 1600 297.26767">
  <defs>
    <style>
      .a {
        fill: none;
      }

      .b {
        fill: #4cf;
      }

      .c {
        fill: #313131;
      }
    </style>
  </defs>
  <g>
    <g>
      <polygon class="a" points="247.029 234.487 169.499 100.2 91.969 234.487 247.029 234.487"/>
      <path class="b" d="M149.3439,62.93873c.02483-.04292.06681-.06607.09417-.10679a2.29317,2.29317,0,0,1,.30322-.34521,2.32269,2.32269,0,0,1,.35878-.31627c.03883-.02578.061-.06671.10248-.09048a6579.56048,6579.56048,0,0,0,.73587-.2481,3.16465,3.16465,0,0,1,.87833,0,2.27906,2.27906,0,0,1,.47094.15887,2.13373,2.13373,0,0,1,.26429.08923c.04072.02377.06313.06439.10259.09027a2.29068,2.29068,0,0,1,.35846.31648,2.31386,2.31386,0,0,1,.304.34553c.02693.0404.06891.06355.09374.10647L252.45218,234.4869h30.824L151.37727,6.02935,0,268.22614l15.4083,26.69315Z"/>
      <path class="b" d="M289.42222,235.79471a3.73156,3.73156,0,0,1,.24136.90181c.00337.0485.0282.08943.0282.13857a2.74249,2.74249,0,0,1-.5952,1.523,2.30484,2.30484,0,0,1-.35983.31754,2.14512,2.14512,0,0,1-.21832.19285c-.05618.03262-.11742.04481-.17466.07229-.06365.0303-.12541.05481-.1917.07933a2.33482,2.33482,0,0,1-.80573.16434l-.01052-.00126H251.1087l-.00968.00126-.0101-.00126H89.2581L73.84633,265.87734H337.64554L186.26743,3.681H155.44464l133.93244,231.9794C289.40191,235.70309,289.40055,235.75138,289.42222,235.79471Z"/>
      <path class="b" d="M69.77644,270.57473a2.336,2.336,0,0,1-.80657-.16457c-.06576-.0246-.12752-.0488-.19044-.07879-.058-.02747-.11921-.04019-.17539-.07259a2.14886,2.14886,0,0,1-.21832-.19286,2.11813,2.11813,0,0,1-.89758-1.55592,2.25889,2.25889,0,0,1-.05745-.28459c0-.04935.02483-.09028.0282-.13888a2.27911,2.27911,0,0,1,.09238-.45811,2.24639,2.24639,0,0,1,.149-.44307c.02167-.04365.02031-.09184.04514-.13467l99.0428-171.54775L151.37727,68.8101,19.47587,297.26767h302.758l15.41166-26.6942H69.78665Z"/>
    </g>
    <g>
      <path d="M462.67651,97.99333v64.82905H419.92V97.99333L342.95825,4.04546h48.0722L441.41381,67.9482,491.56605,4.04546h48.0722Z"/>
      <path d="M569.22114,162.82238V4.04546H729.96255V37.90308H613.2488V64.13571H723.95353V97.99333H613.2488v30.96959H731.58037v33.85946Z"/>
      <path d="M900.52641,132.77726H812.00885l-14.907,30.04512H749.26077L832.34709,4.04546h47.84108l83.08632,158.77692H915.43341Zm-73.14832-30.96959h58.0102L856.49875,43.33524Z"/>
      <path d="M1032.37828,64.59794l87.82421-60.55248h57.43241L1070.74359,80.19737l114.05591,82.625h-62.517l-89.90425-65.98464v65.98464h-43.1032V4.04546h43.1032Z"/>
      <path d="M1355.94115,48.76555q-4.50677-2.19376-11.90249-4.96808-7.39665-2.77339-16.75594-5.25836a192.74577,192.74577,0,0,0-20.33823-4.16009,149.22272,149.22272,0,0,0-22.53385-1.67513q-9.2465,0-15.77322.57686a97.8079,97.8079,0,0,0-10.97895,1.50318,33.14061,33.14061,0,0,0-7.04813,2.13737,15.911,15.911,0,0,0-3.98722,2.485,6.07871,6.07871,0,0,0-1.79069,2.54228,7.66047,7.66047,0,0,0-.40491,2.31116q0,3.46675,3.46674,6.06634a33.86566,33.86566,0,0,0,9.47577,4.62233,141.53867,141.53867,0,0,0,13.98254,3.81435q7.97352,1.7916,16.92973,3.69786,8.95392,1.90531,18.48931,4.16009,9.53217,2.252,18.48931,5.25651a131.00493,131.00493,0,0,1,16.92881,6.99266,64.51375,64.51375,0,0,1,13.98254,9.302A40.36132,40.36132,0,0,1,1365.648,100.421a34.92814,34.92814,0,0,1,3.46674,15.83055q0,11.44026-4.04454,19.64489a42.148,42.148,0,0,1-10.80515,13.867,54.52173,54.52173,0,0,1-15.65767,9.0727,108.56787,108.56787,0,0,1-18.66218,5.25651,154.29589,154.29589,0,0,1-19.76137,2.42764q-9.99533.57687-19.00886.57687a230.4599,230.4599,0,0,1-43.62367-3.86981,219.088,219.088,0,0,1-35.41811-9.64957V115.67465a145.4343,145.4343,0,0,0,36.11146,13.7505,181.87556,181.87556,0,0,0,43.39256,4.96992,139.08465,139.08465,0,0,0,22.24448-1.444,54.38568,54.38568,0,0,0,13.463-3.69786q4.85344-2.25477,6.58682-4.91261a9.36113,9.36113,0,0,0,1.73337-5.08456,8.38254,8.38254,0,0,0-3.46675-6.64321,31.878,31.878,0,0,0-9.47577-4.96992,121.588,121.588,0,0,0-13.98253-3.929q-7.97352-1.79162-16.92881-3.58138-8.9567-1.79162-18.432-3.87166-9.4767-2.08005-18.432-4.91076a135.72161,135.72161,0,0,1-16.92881-6.58774,61.93973,61.93973,0,0,1-13.98254-8.89706A38.97048,38.97048,0,0,1,1204.56,63.96191a33.849,33.849,0,0,1-3.46675-15.6586,41.19006,41.19006,0,0,1,3.69787-18.1417,39.54061,39.54061,0,0,1,9.99624-12.99984,52.80748,52.80748,0,0,1,14.56033-8.7251,97.87917,97.87917,0,0,1,17.391-5.201A148.40193,148.40193,0,0,1,1265.228.69335Q1274.5882,0,1283.024,0q9.24372,0,19.00885.92447,9.76514.92631,19.2409,2.60144,9.47393,1.67513,18.31643,3.86981,8.83881,2.19654,16.351,4.62233Z"/>
      <path d="M1537.25191,132.77726h-88.51755l-14.907,30.04512h-47.84108L1469.0726,4.04546h47.84108L1600,162.82238h-47.84108Zm-73.14832-30.96959h58.0102l-28.88954-58.47243Z"/>
    </g>
    <g>
      <path class="c" d="M489.69138,264.16933a42.09594,42.09594,0,0,1-1.2724,10.856,28.37082,28.37082,0,0,1-3.58767,8.2637,23.41928,23.41928,0,0,1-5.62589,5.97219,29.11765,29.11765,0,0,1-7.35936,3.934,43.31026,43.31026,0,0,1-8.796,2.153,71.27845,71.27845,0,0,1-9.97541.66885h-32.8213V232.41266h32.72829a65.54978,65.54978,0,0,1,14.53667,1.52768,30.49521,30.49521,0,0,1,11.64161,5.20834,24.86665,24.86665,0,0,1,7.73139,9.79138Q489.69039,255.04878,489.69138,264.16933Zm-5.92469.02375a37.22291,37.22291,0,0,0-1.01911-9.174,23.40319,23.40319,0,0,0-2.91882-6.926,18.31164,18.31164,0,0,0-4.63448-4.93527,24.28035,24.28035,0,0,0-6.16215-3.22157,35.14017,35.14017,0,0,0-7.45831-1.73744,68.29036,68.29036,0,0,0-8.57042-.51054H426.03952V290.7414H453.0034a58.75771,58.75771,0,0,0,12.46283-1.22689,24.72524,24.72524,0,0,0,9.70431-4.26245,20.13161,20.13161,0,0,0,6.32442-8.15685A31.91118,31.91118,0,0,0,483.76669,264.19308Z"/>
      <path class="c" d="M526.83054,296.017V232.41266h5.78617V296.017Z"/>
      <path class="c" d="M611.78874,231.257a71.46888,71.46888,0,0,1,8.19444.4393,64.22485,64.22485,0,0,1,7.26635,1.25064,67.87493,67.87493,0,0,1,6.75977,1.94324q3.2859,1.13388,6.61927,2.52106v7.03681a62.28861,62.28861,0,0,0-5.62786-3.14638,46.48513,46.48513,0,0,0-6.4392-2.5923,51.67667,51.67667,0,0,0-7.41279-1.76118,52.76322,52.76322,0,0,0-8.50116-.64511,59.88543,59.88543,0,0,0-16.16725,1.94324,32.658,32.658,0,0,0-11.48725,5.55266,22.85759,22.85759,0,0,0-6.88048,8.798,28.52585,28.52585,0,0,0-2.2935,11.66337,27.48035,27.48035,0,0,0,2.248,11.18053,23.32135,23.32135,0,0,0,6.80924,8.81778,33.24992,33.24992,0,0,0,11.42,5.78617,55.50389,55.50389,0,0,0,16.07622,2.08572q3.61241,0,7.15752-.277,3.54413-.279,6.69447-.7203,3.14934-.43932,5.74461-.96964,2.59428-.5343,4.401-1.08837V269.76949H610.49259v-5.41415h31.66366v27.96123q-3.4254,1.19919-6.92006,2.12925-3.49664.9261-7.22282,1.54746-3.72519.62928-7.72941.94985-4.0042.32652-8.40222.32454a65.63353,65.63353,0,0,1-16.66592-2.01448,39.242,39.242,0,0,1-13.3078-6.1107,28.97218,28.97218,0,0,1-8.81976-10.298,31.45632,31.45632,0,0,1-3.19387-14.58416,33.16823,33.16823,0,0,1,1.48216-10.20694,28.65167,28.65167,0,0,1,4.18924-8.28744,28.99855,28.99855,0,0,1,6.52626-6.40754,37.47608,37.47608,0,0,1,8.47148-4.51575,52.177,52.177,0,0,1,10.02291-2.68332A67.5222,67.5222,0,0,1,611.78874,231.257Z"/>
      <path class="c" d="M680.91609,296.017V232.41266h5.78617V296.017Z"/>
      <path class="c" d="M754.20894,237.68829V296.017h-5.74066V237.68829H719.53543v-5.27563h63.60635v5.27563Z"/>
      <path class="c" d="M864.69635,296.017l-8.74852-16.80444h-43.1905L804.00881,296.017h-6.34223l33.28435-63.60437h6.8033L871.03858,296.017Zm-30.32-58.00421L815.58116,273.937H853.124Z"/>
      <path class="c" d="M903.80249,296.017V232.41266h5.78617v58.19022H956.066V296.017Z"/>
      <path class="c" d="M1099.71511,232.41266l22.68164,58.97781,23.51672-58.97781h6.43524L1126.74825,296.017h-8.61l-22.31159-57.44617L1073.5586,296.017h-8.61l-25.59847-63.60437h6.43326l23.51671,58.97781,22.63613-58.97781Z"/>
      <path class="c" d="M1262.18705,264.26036a32.83566,32.83566,0,0,1-3.09888,14.79,28.5035,28.5035,0,0,1-8.513,10.27818,36.72092,36.72092,0,0,1-12.76955,5.99593,62.02725,62.02725,0,0,1-15.86844,1.94324,62.76688,62.76688,0,0,1-15.96343-1.94324,37.16166,37.16166,0,0,1-12.86058-5.99593,28.29062,28.29062,0,0,1-8.56053-10.27818,32.83552,32.83552,0,0,1-3.09889-14.79,35.04166,35.04166,0,0,1,1.43467-10.34546,29.37092,29.37092,0,0,1,4.025-8.331,27.3492,27.3492,0,0,1,6.269-6.368,36.63943,36.63943,0,0,1,8.1885-4.4643,47.27641,47.27641,0,0,1,9.69243-2.6398,66.7533,66.7533,0,0,1,10.87382-.85486,61.85284,61.85284,0,0,1,15.86844,1.94323,36.65055,36.65055,0,0,1,12.76955,5.99594,28.52354,28.52354,0,0,1,8.513,10.27421A32.8592,32.8592,0,0,1,1262.18705,264.26036Zm-5.92469,0a30.34687,30.34687,0,0,0-2.20049-11.94041,22.47825,22.47825,0,0,0-6.50845-8.72676,29.28891,29.28891,0,0,0-10.72342-5.37061,61.373,61.373,0,0,0-29.83322.02375,30.06033,30.06033,0,0,0-10.81643,5.3904,22.51019,22.51019,0,0,0-6.57771,8.7505,32.992,32.992,0,0,0,0,23.8175,22.54874,22.54874,0,0,0,6.57771,8.72675,29.78437,29.78437,0,0,0,10.81643,5.37062,61.75907,61.75907,0,0,0,29.83322,0,29.35025,29.35025,0,0,0,10.72342-5.37062,22.53624,22.53624,0,0,0,6.50845-8.72675A30.35328,30.35328,0,0,0,1256.26236,264.26036Z"/>
      <path class="c" d="M1305.25288,268.79985V296.017h-5.78617V232.41266h31.66367a59.10949,59.10949,0,0,1,12.45293,1.13586,23.74007,23.74007,0,0,1,8.49325,3.42342,13.66859,13.66859,0,0,1,4.8383,5.7189,19.49274,19.49274,0,0,1,1.52768,8.00644q0,7.12981-3.74993,11.41008-3.74895,4.2862-12.08289,5.85742l21.712,28.05225h-7.26834l-20.50688-27.40319c-.86476.06332-1.74337.10686-2.63781.13852q-1.34463.04749-2.77831.04749Zm47.265-18.10257a13.27574,13.27574,0,0,0-1.43664-6.5975,9.39777,9.39777,0,0,0-4.682-3.91022,28.676,28.676,0,0,0-8.50116-1.87595q-5.25979-.48681-12.90609-.48284h-19.73909v25.551h19.555q7.64334,0,12.92787-.43931a29.03424,29.03424,0,0,0,8.5724-1.80471,9.49088,9.49088,0,0,0,4.74925-3.84294A12.92647,12.92647,0,0,0,1352.51784,250.69728Z"/>
      <path class="c" d="M1404.65277,262.36462l47.265-29.952h8.05394l-46.61589,30.506L1462.843,296.017h-9.86064l-48.32958-32.40178V296.017h-5.92469V232.41266h5.92469Z"/>
      <path class="c" d="M1546.82957,241.80827q-1.80768-.87862-4.17143-1.872a39.58056,39.58056,0,0,0-5.39831-1.78493,62.13,62.13,0,0,0-6.835-1.31792,60.90332,60.90332,0,0,0-8.4319-.53033,68.90258,68.90258,0,0,0-9.98531.64511,28.34414,28.34414,0,0,0-7.41477,2.01447,11.80664,11.80664,0,0,0-4.63448,3.44717,7.91388,7.91388,0,0,0-1.59693,4.95505,6.36147,6.36147,0,0,0,1.50591,4.211,13.64848,13.64848,0,0,0,4.07644,3.19783,37.339,37.339,0,0,0,6.02363,2.52106q3.45211,1.13388,7.31979,2.12925,3.86767.99734,7.96885,2.01447,4.10217,1.01515,7.96885,2.19653a74.91734,74.91734,0,0,1,7.32177,2.63979,28.01043,28.01043,0,0,1,6.02165,3.40363,15.78661,15.78661,0,0,1,4.07842,4.44451,10.99428,10.99428,0,0,1,1.50591,5.78618,13.66287,13.66287,0,0,1-1.34364,6.22548,14.33937,14.33937,0,0,1-3.63318,4.583,20.371,20.371,0,0,1-5.37061,3.19387,37.37956,37.37956,0,0,1-6.57376,2.01447,57.65448,57.65448,0,0,1-7.22084,1.04088q-3.7252.30276-7.3376.30079a85.64848,85.64848,0,0,1-15.02149-1.20315,87.53172,87.53172,0,0,1-12.84673-3.28885v-7.08035a41.6274,41.6274,0,0,0,13.30978,5.13711,75.76144,75.76144,0,0,0,14.74445,1.38916,72.51043,72.51043,0,0,0,10.09217-.64907,32.50449,32.50449,0,0,0,8.00842-2.058,13.32554,13.32554,0,0,0,5.25386-3.68067,8.43841,8.43841,0,0,0,1.874-5.55663,7.45651,7.45651,0,0,0-1.50393-4.62656,13.65488,13.65488,0,0,0-4.07446-3.49466,31.98381,31.98381,0,0,0-6.0177-2.66354q-3.44915-1.15762-7.29011-2.153-3.84391-.99141-7.93916-1.94324-4.09623-.94985-7.93917-2.062a75.82731,75.82731,0,0,1-7.29208-2.49731,27.73771,27.73771,0,0,1-6.0177-3.26511,15.213,15.213,0,0,1-4.07249-4.32578,10.67943,10.67943,0,0,1-1.50591-5.69515,12.80326,12.80326,0,0,1,1.20513-5.6714,13.13839,13.13839,0,0,1,3.30864-4.28224,19.42466,19.42466,0,0,1,4.93131-3.03161,33.22625,33.22625,0,0,1,6.03947-1.94323,53.8,53.8,0,0,1,6.69051-1.04484q3.46992-.32057,6.8508-.32057,3.70145,0,7.01306.32057,3.30963.32652,6.38774.85883,3.07812.53428,6.0177,1.22689,2.94158.69458,5.95042,1.48018Z"/>
    </g>
  </g>
</svg>
